<svg width="539" height="362" viewBox="0 0 539 362" fill="none" xmlns="http://www.w3.org/2000/svg">
<path d="M416.724 0C456.925 0 487.288 10.3678 507.812 31.1035C528.548 51.6276 538.916 84.6354 538.916 130.127V361.499H441.797V154.248C441.797 128.857 437.459 109.709 428.784 96.8018C420.109 83.8949 406.673 77.4414 388.477 77.4414C362.874 77.4414 344.678 86.6455 333.887 105.054C323.096 123.25 317.7 149.382 317.7 183.447V361.499H220.898V154.248C220.898 137.321 218.994 123.145 215.186 111.719C211.377 100.293 205.558 91.7236 197.729 86.0107C189.901 80.2979 179.85 77.4414 167.578 77.4414C149.593 77.4414 135.417 81.9906 125.049 91.0889C114.893 99.9756 107.593 113.2 103.149 130.762C98.9176 148.112 96.8018 169.377 96.8018 194.556V361.499H0V6.66504H73.9502L86.9629 52.0508H92.3584C99.5524 39.7786 108.545 29.834 119.336 22.2168C130.339 14.5996 142.399 8.99251 155.518 5.39551C168.636 1.7985 181.966 0 195.508 0C221.533 0 243.538 4.23177 261.523 12.6953C279.72 21.1589 293.685 34.2773 303.418 52.0508H311.987C322.567 33.8542 337.484 20.6299 356.738 12.3779C376.204 4.12598 396.2 0 416.724 0Z" fill="#800F2F"/>
</svg>
